<!DOCTYPE svg PUBLIC "-//W3C//DTD SVG 1.1//EN" "http://www.w3.org/Graphics/SVG/1.1/DTD/svg11.dtd">
<!-- Uploaded to: SVG Repo, www.svgrepo.com, Transformed by: SVG Repo Mixer Tools -->
<svg fill="#000000" version="1.1" id="Capa_1" xmlns="http://www.w3.org/2000/svg" xmlns:xlink="http://www.w3.org/1999/xlink" width="185px" height="185px" viewBox="-60.4 -60.4 724.75 724.75" xml:space="preserve" transform="matrix(1, 0, 0, 1, 0, 0)rotate(0)" stroke="#000000" stroke-width="0.00603955">
<g id="SVGRepo_bgCarrier" stroke-width="0"/>
<g id="SVGRepo_tracerCarrier" stroke-linecap="round" stroke-linejoin="round" stroke="#CCCCCC" stroke-width="8.455370000000002"/>
<g id="SVGRepo_iconCarrier"> <g> <g> <path d="M546.118,25.379c-2.651,0-5.331,0.187-7.965,0.554L203.53,72.666c-13.893,1.94-26.614,8.836-35.821,19.418 c-9.208,10.582-14.278,24.136-14.278,38.163v172.957c-4.39-0.468-8.82-0.728-13.288-0.777c-0.521-0.006-1.041-0.009-1.552-0.009 C62.97,302.412,1.022,363.922,0.503,439.534c-0.128,18.716,3.436,36.91,10.594,54.078c6.902,16.553,16.831,31.419,29.509,44.185 c12.68,12.767,27.481,22.799,43.99,29.816c17.115,7.274,35.277,10.963,53.983,10.963c18.48,0,36.44-3.604,53.381-10.71 c16.342-6.854,31.039-16.668,43.682-29.166c12.634-12.49,22.612-27.062,29.657-43.314c7.118-16.42,10.923-33.842,11.317-51.804 c0.028-0.626,0.042-1.255,0.042-1.884V240.272l203.569-28.43v41.009c-4.542-0.484-9.129-0.744-13.754-0.781 c-0.355-0.003-0.728-0.004-1.093-0.004c-18.586,0-36.657,3.666-53.713,10.897c-16.423,6.963-31.175,16.913-43.844,29.573 c-12.676,12.667-22.639,27.417-29.61,43.842c-7.246,17.067-10.919,35.158-10.919,53.77c0,18.622,3.657,36.709,10.869,53.76 c6.958,16.446,16.907,31.209,29.575,43.876c12.667,12.667,27.43,22.617,43.876,29.573c17.052,7.212,35.139,10.869,53.76,10.869 c0.339,0,0.67-0.001,1.01-0.003c18.558-0.134,36.606-3.999,53.643-11.489c16.259-7.148,30.867-17.269,43.419-30.08 c12.492-12.75,22.317-27.522,29.202-43.906c7.171-17.06,10.806-35.062,10.806-53.507V82.746 C603.455,51.114,577.734,25.379,546.118,25.379z M560.615,389.24c0,52.003-42.536,95.77-94.539,96.144 c-0.235,0.002-0.466,0.002-0.7,0.002c-52.597,0-95.239-42.642-95.24-95.238c-0.001-52.497,42.841-95.244,95.246-95.242 c0.25,0,0.505,0.001,0.756,0.003c14.104,0.11,27.475,3.289,39.482,8.897c1.716,0.802,3.483,1.171,5.207,1.171 c6.439,0,12.24-5.165,12.24-12.242V180.188c0-8.562-6.975-15.303-15.271-15.303c-0.706,0-1.423,0.049-2.146,0.15l-258.648,36.122 c-7.559,1.056-13.184,7.521-13.184,15.153v225.388l-0.015-0.002c-0.644,52.045-43.027,94.039-95.225,94.039 c-52.822,0-95.601-43.002-95.237-95.908c0.358-52.185,43.192-94.574,95.25-94.571c0.355,0,0.717,0.002,1.073,0.007 c13.984,0.156,27.243,3.328,39.16,8.895c1.715,0.801,3.483,1.171,5.206,1.171c6.439,0,12.241-5.165,12.241-12.243V130.247 c0-7.632,5.625-14.097,13.184-15.153L544.081,68.36c0.686-0.096,1.365-0.142,2.036-0.142c7.876,0,14.497,6.399,14.497,14.527 L560.615,389.24L560.615,389.24z"/> <path d="M138.58,579.076c-18.773,0-37.001-3.702-54.179-11.003c-16.568-7.043-31.422-17.11-44.149-29.924 c-12.724-12.812-22.688-27.732-29.615-44.345c-7.185-17.23-10.762-35.491-10.633-54.274 c0.521-75.88,62.688-137.613,138.579-137.613c0.005,0,0.005,0,0.009,0c0.513,0,1.035,0.003,1.558,0.009 c4.27,0.048,8.567,0.291,12.782,0.723V130.247c0-14.148,5.114-27.818,14.401-38.491c9.286-10.673,22.117-17.629,36.129-19.585 l334.623-46.732c2.657-0.371,5.36-0.559,8.034-0.559c31.892,0,57.837,25.959,57.837,57.867V389.24 c0,18.514-3.648,36.581-10.845,53.7c-6.909,16.442-16.77,31.268-29.306,44.062c-12.596,12.856-27.257,23.014-43.575,30.188 c-17.098,7.518-35.213,11.396-53.84,11.531l-1.014,0.003c-18.688,0-36.84-3.67-53.954-10.908 c-16.507-6.982-31.322-16.968-44.035-29.681c-12.711-12.71-22.697-27.525-29.683-44.034 c-7.238-17.114-10.908-35.267-10.908-53.955c0-18.681,3.687-36.837,10.959-53.965c6.996-16.482,16.994-31.286,29.717-44 c12.715-12.706,27.52-22.691,44.002-29.68c17.116-7.257,35.252-10.937,53.904-10.937l1.101,0.004 c4.435,0.035,8.889,0.279,13.25,0.726v-39.879l-202.569,28.29v200.991c0,0.637-0.014,1.272-0.042,1.906 c-0.395,18.014-4.217,35.506-11.358,51.98c-7.07,16.31-17.084,30.935-29.765,43.471c-12.689,12.544-27.439,22.393-43.84,29.271 C175.151,575.46,157.126,579.076,138.58,579.076z M138.592,302.917C63.242,302.912,1.52,364.2,1.003,439.538 c-0.128,18.647,3.423,36.776,10.556,53.882c6.877,16.492,16.77,31.305,29.402,44.024c12.635,12.722,27.382,22.717,43.831,29.709 c17.053,7.248,35.15,10.923,53.788,10.923c18.413,0,36.308-3.59,53.188-10.671c16.282-6.829,30.926-16.606,43.523-29.061 c12.589-12.445,22.531-26.966,29.55-43.158c7.09-16.354,10.884-33.721,11.276-51.615c0.028-0.63,0.042-1.252,0.042-1.873V239.837 l204.569-28.569v42.14l-0.553-0.059c-4.505-0.48-9.116-0.742-13.705-0.778l-1.089-0.004c-18.521,0-36.525,3.653-53.518,10.857 c-16.364,6.938-31.062,16.852-43.686,29.466c-12.632,12.623-22.558,27.32-29.504,43.684 c-7.219,17.003-10.879,35.028-10.879,53.574c0,18.554,3.644,36.575,10.83,53.565c6.934,16.39,16.849,31.099,29.468,43.717 c12.621,12.621,27.33,22.535,43.717,29.466c16.991,7.187,35.013,10.83,53.565,10.83l1.007-0.003 c18.49-0.134,36.472-3.984,53.444-11.447c16.201-7.123,30.757-17.207,43.263-29.972c12.448-12.705,22.238-27.425,29.099-43.75 c7.145-16.996,10.767-34.934,10.767-53.313V82.746c0-31.357-25.497-56.867-56.837-56.867c-2.628,0-5.284,0.185-7.896,0.549 L203.6,73.161c-13.773,1.923-26.385,8.76-35.513,19.251c-9.128,10.491-14.156,23.928-14.156,37.834v173.512l-0.553-0.059 c-4.36-0.465-8.814-0.726-13.24-0.774C139.619,302.92,139.101,302.917,138.592,302.917z M138.58,536.235 c-25.697,0-49.823-10.042-67.932-28.275c-18.107-18.232-27.982-42.43-27.806-68.137c0.36-52.42,43.311-95.067,95.745-95.067v0.5 l0.002-0.5c0.36,0,0.725,0.002,1.083,0.007c13.747,0.153,26.992,3.162,39.364,8.941c1.598,0.746,3.278,1.124,4.994,1.124 c6.474,0,11.741-5.268,11.741-11.743V130.247c0-7.837,5.853-14.564,13.614-15.648l334.625-46.733 c0.695-0.097,1.404-0.146,2.105-0.146c8.27,0,14.997,6.741,14.997,15.027l0.001,306.494c0,25.339-9.912,49.411-27.911,67.782 c-18.057,18.43-41.896,28.68-67.124,28.861l-0.704,0.002c-52.79,0-95.739-42.948-95.74-95.738c0-25.512,9.985-49.54,28.117-67.66 c18.121-18.108,42.138-28.082,67.625-28.082l0.764,0.003c13.862,0.108,27.216,3.118,39.69,8.944 c1.596,0.746,3.276,1.124,4.995,1.124c6.474,0,11.74-5.268,11.74-11.742V180.188c0-8.163-6.626-14.803-14.771-14.803 c-0.689,0-1.388,0.049-2.076,0.145l-258.648,36.122c-7.271,1.016-12.753,7.317-12.753,14.658v225.957l-0.023-0.003 c-0.454,25.109-10.533,48.643-28.419,66.323C187.842,526.417,163.942,536.235,138.58,536.235z M138.587,345.756 c-51.886,0-94.388,42.202-94.745,94.075c-0.175,25.438,9.597,49.383,27.515,67.424c17.92,18.044,41.793,27.98,67.222,27.98 c25.097,0,48.747-9.716,66.594-27.358c17.831-17.627,27.821-41.132,28.131-66.187l0.007-0.562l0.008,0.001V216.311 c0-7.837,5.853-14.564,13.614-15.648l258.648-36.122c0.734-0.103,1.479-0.155,2.215-0.155c8.696,0,15.771,7.089,15.771,15.803 v112.547c0,7.026-5.715,12.742-12.74,12.742c-1.866,0-3.689-0.41-5.419-1.218c-12.343-5.766-25.557-8.743-39.274-8.851 l-0.752-0.003c-25.224,0-48.989,9.869-66.922,27.79c-17.943,17.931-27.824,41.708-27.824,66.952 c0.001,52.239,42.501,94.738,94.74,94.738l0.696-0.002c24.961-0.18,48.549-10.322,66.417-28.561 c17.815-18.184,27.626-42.007,27.626-67.083l-0.001-306.494c0-7.735-6.279-14.027-13.997-14.027c-0.655,0-1.317,0.046-1.967,0.137 l-334.625,46.733c-7.271,1.016-12.753,7.317-12.753,14.658v212.838c0,7.026-5.716,12.743-12.741,12.743 c-1.863,0-3.686-0.41-5.417-1.218c-12.243-5.719-25.349-8.695-38.954-8.848c-0.354-0.005-0.714-0.007-1.067-0.007H138.587z"/> </g> </g> </g>
</svg>